<?xml version="1.0" encoding="utf-8"?>
<!-- Generator: Adobe Illustrator 22.0.0, SVG Export Plug-In . SVG Version: 6.00 Build 0)  -->
<svg version="1.1" id="Layer_1" xmlns="http://www.w3.org/2000/svg" xmlns:xlink="http://www.w3.org/1999/xlink" x="0px" y="0px"
	 viewBox="0 0 93.7 121.7" style="enable-background:new 0 0 93.7 121.7;" xml:space="preserve">
<style type="text/css">
	.st0{fill:#FFFFFF;stroke:#FFFFFF;}
	.st1{font-family:'Verdana';}
	.st2{font-size:11px;}
</style>
<image style="overflow:visible;enable-background:new    ;" width="2000" height="2000" xlink:href="15BFDA74BF368866.png"  transform="matrix(4.300000e-02 0 0 4.300000e-02 4 4)">
</image>
<path class="st0" d="M88,0H5.7C2.5,0,0,2.5,0,5.7V116c0,3.1,2.5,5.7,5.7,5.7H88c3.1,0,5.7-2.5,5.7-5.7V5.7C93.7,2.5,91.1,0,88,0z
	 M89.3,86.6c0,1.6-1.3,2.8-2.8,2.8H7.1c-1.6,0-2.8-1.3-2.8-2.8V7.2c0-1.6,1.3-2.8,2.8-2.8h79.4c1.6,0,2.8,1.3,2.8,2.8V86.6z"/>
<text transform="matrix(1 0 0 1 23 111)" class="st1 st2">S</text>
<text transform="matrix(1 0 0 1 30.5195 111)" class="st1 st2">c</text>
<text transform="matrix(1 0 0 1 36.2505 111)" class="st1 st2">a</text>
<text transform="matrix(1 0 0 1 42.8569 111)" class="st1 st2">n</text>
<text transform="matrix(1 0 0 1 49.8179 111)" class="st1 st2"> </text>
<text transform="matrix(1 0 0 1 53.6851 111)" class="st1 st2">m</text>
<text transform="matrix(1 0 0 1 64.3843 111)" class="st1 st2">e</text>
<title>creation-crate-preview</title>
<path d="M8.8,112.3h6.4v-10.7H8.8V112.3z M13.1,100.6h-2.1v0.5h2.1V100.6z M14.7,99H9.3c-1.2,0-2.2,1-2.2,2.1v11.8
	c0,1.2,1,2.1,2.2,2.1h5.3c1.2,0,2.2-1,2.2-2.1v-11.8C16.8,100,15.8,99,14.7,99z M15.7,112.9c0,0.6-0.5,1.1-1.1,1.1H9.3
	c-0.6,0-1.1-0.5-1.1-1.1v-11.8c0-0.6,0.5-1.1,1.1-1.1h5.3c0.6,0,1.1,0.5,1.1,1.1V112.9z"/>
</svg>
